<svg width="1920" height="635" viewBox="0 0 1920 635" fill="none" xmlns="http://www.w3.org/2000/svg">
<g clip-path="url(#clip0_1_2)">
<rect width="1920" height="635" fill="white"/>
<path d="M1651.49 37.1024V37.1338H1651.51V37.1024H1651.49ZM1366.13 201.86L1247.02 270.647H1247V334.623H1247.02V270.662L1366.15 201.876H1366.13V201.86Z" fill="black"/>
<path d="M1247 270.647V334.623H1247.02V270.647H1247ZM1297.06 299.556L1302.39 302.643H1302.41L1297.06 299.556ZM1651.49 568.151L1367.18 404.005L1651.49 568.167V568.151ZM1651.49 504.16L1302.42 302.643L1651.49 504.191V504.16ZM1297.06 299.556L1302.39 302.643H1302.41L1297.06 299.556ZM1367.18 404.005L1651.49 568.151L1367.18 404.005ZM1651.49 504.176L1302.42 302.643L1651.49 504.191V504.176Z" fill="black"/>
<path d="M2055.98 270.662V334.622L1770.5 499.443L1651.51 568.135V568.151H1651.49V568.135L1367.18 404.004L1247.02 334.638V270.662L1296.18 299.038L1297.06 299.555L1302.39 302.642H1302.42L1651.49 504.191L1651.51 504.175L2000.56 302.642H2000.61L2055.98 270.662Z" fill="#000571" stroke="black" stroke-width="3.71498" stroke-linejoin="round"/>
<path d="M2000.6 302.626L2055.97 270.662L2000.58 302.626H2000.6ZM1651.51 568.135L1770.5 499.443L1651.51 568.135V568.135ZM2055.98 270.662V334.622H2056V270.646H2055.98V270.662Z" fill="black"/>
<path d="M1297.06 299.556L1302.39 302.643H1302.4L1297.06 299.556ZM1936.85 201.861L2055.98 270.647L1936.87 201.861H1936.85ZM2055.97 270.647L2000.59 302.627L2055.97 270.663H2055.95L2055.97 270.647ZM1651.49 504.16L1302.42 302.643L1651.49 504.191V504.16ZM1297.06 299.556L1302.39 302.643H1302.4L1297.06 299.556ZM1366.13 201.861L1247.02 270.647L1366.15 201.877H1366.13V201.861ZM1297.06 299.541L1302.39 302.627H1302.4L1297.06 299.541Z" fill="black"/>
<path d="M1651.51 568.137L1770.5 499.445L1651.51 568.137ZM1651.49 568.153L1367.18 404.006L1651.49 568.168V568.153Z" fill="black"/>
<path d="M1651.49 -164.446L1247.02 69.098H1247V133.074H1247.02V69.1136L1651.49 -164.415H1651.51V-164.446H1651.49Z" fill="black"/>
<path d="M1247 69.0972V133.057H1247.02V69.0972H1247ZM1302.42 101.093L1421.54 169.879L1302.41 101.093H1302.42ZM1421.57 169.879H1421.55L1476.94 201.859L1421.57 169.879ZM1476.96 201.859L1651.49 302.641L1476.96 201.859ZM1651.49 366.602L1421.57 233.84L1651.49 366.617V366.602ZM1366.18 201.859H1366.16L1247.03 133.073L1366.15 201.859H1366.18L1421.55 233.84L1366.19 201.859H1366.18ZM1302.42 101.093L1421.54 169.879L1302.41 101.093H1302.42ZM1421.57 169.879H1421.55L1476.94 201.859L1421.57 169.879ZM1476.96 201.859L1651.49 302.641L1476.96 201.859Z" fill="black"/>
<path d="M2055.98 69.1122V133.072H2055.97L1936.84 201.843V201.859H1936.82L1881.45 233.839H1881.42L1651.51 366.585V366.601H1651.49V366.585L1421.57 233.839H1421.53L1366.18 201.859H1366.16V201.843L1247.03 133.072H1247.02V69.1122L1302.39 101.077V101.092H1302.42L1421.53 169.879H1421.55V169.894L1476.94 201.859V201.874H1476.96L1651.49 302.641L1826.04 201.874V201.859H1826.06L1881.42 169.879H1881.45L2000.56 101.092H2000.59L2000.61 101.077L2055.98 69.1122Z" fill="#0F1371" stroke="black" stroke-width="3.71498" stroke-linejoin="bevel"/>
<path d="M1826.03 201.86L1651.49 302.642L1826.04 201.876H1826.03V201.86ZM1881.42 233.824L1651.51 366.571L1881.43 233.84H1881.42V233.824ZM1936.82 201.829L1881.45 233.809L1936.84 201.844H1936.82V201.829ZM1881.45 169.817L2000.56 101.046L1881.45 169.817V169.817ZM2055.97 69.0507L2000.61 101.031L2055.98 69.0663V133.027H2056V69.0507H2055.97V69.0507ZM1936.84 201.797L2055.95 133.027L1936.82 201.797H1936.84ZM1826.03 201.813L1651.49 302.595L1826.04 201.829H1826.03V201.813ZM1881.45 169.801L2000.56 101.031L1881.45 169.801Z" fill="black"/>
<path d="M1881.45 169.864L2000.56 101.093L1881.45 169.864V169.864ZM2055.97 69.0972L2000.61 101.077L2055.98 69.1129H2055.97V69.0972ZM1826.04 201.828H1826.03L1651.49 302.61L1476.96 201.844L1651.49 302.626L1826.04 201.859H1826.06L1881.42 169.864L1826.04 201.828V201.828ZM1421.57 169.864H1421.55L1476.94 201.844L1421.57 169.864ZM1302.42 101.077L1421.54 169.864L1302.41 101.077H1302.42Z" fill="black"/>
<path d="M1247.03 133.074L1366.15 201.86L1247.03 133.074ZM1366.18 201.86H1366.16L1421.53 233.84L1366.18 201.86ZM1651.49 366.602L1421.57 233.856L1651.49 366.618V366.602ZM1651.51 366.587L1881.43 233.856L1651.51 366.587ZM1936.82 201.86L1881.45 233.84L1936.84 201.876H1936.82V201.86ZM1936.84 201.829L2055.95 133.058L1936.82 201.829H1936.84Z" fill="black"/>
<path d="M2055.97 270.645L2000.59 302.626H2000.58V302.641H2000.56L1651.51 504.174H1651.49L1302.42 302.641H1302.41V302.626L1297.06 299.554L1296.18 299.037L1247.02 270.661L1366.15 201.875H1366.16L1421.54 233.839V233.855H1421.57L1651.49 366.617L1651.51 366.601L1881.43 233.855H1881.45V233.839L1936.84 201.875L2055.97 270.645Z" fill="#FFC72B" stroke="black" stroke-width="3.71498" stroke-linejoin="bevel"/>
<path d="M1651.51 -164.415H1651.49L1247.02 69.1137L1302.39 101.078H1302.42L1421.55 169.864H1421.57L1476.94 201.86H1476.96L1651.49 302.627L1826.03 201.86H1826.04L1881.42 169.88H1881.45L2000.56 101.094H2000.61L2055.97 69.098L1651.51 -164.415ZM1651.51 37.1336H1651.49V37.1023H1651.51V37.1336Z" fill="#2762FF" stroke="black" stroke-width="3.71498" stroke-linejoin="bevel"/>
<line x1="1652.12" y1="300.547" x2="1652.12" y2="365.03" stroke="black" stroke-width="4.2079"/>
<line x1="1652.12" y1="504.191" x2="1652.12" y2="568.675" stroke="black" stroke-width="4.2079"/>
<path d="M131.615 230.212V211.845H228.119V230.212H190.734V332.8H169V230.212H131.615ZM258.011 279.646V332.8H236.631V211.845H257.538V257.498H258.601C260.727 252.379 264.015 248.344 268.464 245.391C272.953 242.398 278.662 240.902 285.592 240.902C291.892 240.902 297.384 242.221 302.07 244.859C306.755 247.497 310.377 251.356 312.937 256.435C315.535 261.514 316.835 267.715 316.835 275.039V332.8H295.455V278.346C295.455 272.243 293.88 267.499 290.73 264.113C287.619 260.687 283.249 258.975 277.619 258.975C273.839 258.975 270.453 259.801 267.46 261.455C264.507 263.069 262.184 265.412 260.491 268.483C258.837 271.554 258.011 275.275 258.011 279.646ZM369.642 334.572C360.546 334.572 352.691 332.682 346.077 328.902C339.501 325.083 334.442 319.688 330.898 312.719C327.354 305.711 325.583 297.462 325.583 287.973C325.583 278.642 327.354 270.452 330.898 263.404C334.481 256.317 339.481 250.805 345.899 246.867C352.317 242.89 359.857 240.902 368.519 240.902C374.11 240.902 379.386 241.808 384.348 243.619C389.348 245.391 393.758 248.147 397.577 251.887C401.436 255.628 404.467 260.392 406.672 266.18C408.877 271.928 409.98 278.779 409.98 286.733V293.289H335.623V278.878H389.486C389.446 274.783 388.56 271.141 386.828 267.952C385.096 264.723 382.674 262.183 379.564 260.333C376.493 258.482 372.91 257.557 368.815 257.557C364.444 257.557 360.605 258.62 357.298 260.746C353.991 262.833 351.412 265.589 349.561 269.015C347.75 272.401 346.825 276.122 346.785 280.177V292.757C346.785 298.033 347.75 302.561 349.679 306.341C351.608 310.081 354.306 312.956 357.77 314.964C361.235 316.932 365.291 317.917 369.937 317.917C373.047 317.917 375.863 317.484 378.382 316.617C380.902 315.712 383.088 314.393 384.938 312.66C386.789 310.928 388.186 308.782 389.131 306.223L409.094 308.467C407.834 313.743 405.432 318.35 401.888 322.287C398.384 326.185 393.896 329.217 388.423 331.382C382.95 333.509 376.689 334.572 369.642 334.572ZM451.971 332.8V211.845H473.882V314.432H527.154V332.8H451.971ZM577.407 211.845V332.8H555.496V233.165H554.787L526.497 251.238V231.157L556.559 211.845H577.407ZM181.934 417.083V433.62H128.307V417.083H181.934ZM141.714 507.8V408.52C141.714 402.417 142.974 397.338 145.494 393.282C148.053 389.227 151.479 386.195 155.77 384.187C160.062 382.179 164.826 381.175 170.063 381.175C173.764 381.175 177.052 381.47 179.926 382.061C182.8 382.651 184.926 383.183 186.304 383.655L182.052 400.192C181.147 399.917 180.005 399.641 178.627 399.365C177.249 399.05 175.713 398.893 174.02 398.893C170.043 398.893 167.228 399.857 165.574 401.787C163.96 403.677 163.153 406.393 163.153 409.937V507.8H141.714ZM225.69 509.572C216.831 509.572 209.153 507.623 202.656 503.725C196.16 499.827 191.12 494.373 187.537 487.365C183.993 480.356 182.222 472.167 182.222 462.796C182.222 453.425 183.993 445.216 187.537 438.168C191.12 431.12 196.16 425.647 202.656 421.749C209.153 417.851 216.831 415.902 225.69 415.902C234.549 415.902 242.227 417.851 248.723 421.749C255.22 425.647 260.24 431.12 263.784 438.168C267.367 445.216 269.158 453.425 269.158 462.796C269.158 472.167 267.367 480.356 263.784 487.365C260.24 494.373 255.22 499.827 248.723 503.725C242.227 507.623 234.549 509.572 225.69 509.572ZM225.808 492.444C230.612 492.444 234.628 491.125 237.856 488.487C241.085 485.81 243.487 482.227 245.062 477.738C246.676 473.25 247.483 468.249 247.483 462.737C247.483 457.185 246.676 452.165 245.062 447.677C243.487 443.149 241.085 439.546 237.856 436.869C234.628 434.191 230.612 432.852 225.808 432.852C220.886 432.852 216.792 434.191 213.524 436.869C210.295 439.546 207.873 443.149 206.259 447.677C204.684 452.165 203.897 457.185 203.897 462.737C203.897 468.249 204.684 473.25 206.259 477.738C207.873 482.227 210.295 485.81 213.524 488.487C216.792 491.125 220.886 492.444 225.808 492.444ZM278.157 507.8V417.083H298.887V432.203H299.832C301.486 426.966 304.321 422.93 308.337 420.095C312.393 417.221 317.019 415.784 322.216 415.784C323.397 415.784 324.716 415.843 326.173 415.961C327.669 416.04 328.91 416.178 329.894 416.375V436.042C328.988 435.727 327.551 435.451 325.583 435.215C323.653 434.939 321.783 434.801 319.972 434.801C316.074 434.801 312.57 435.648 309.459 437.341C306.388 438.995 303.967 441.298 302.195 444.251C300.423 447.204 299.537 450.61 299.537 454.468V507.8H278.157ZM368.002 507.8V386.845H413.36C422.652 386.845 430.448 388.459 436.748 391.687C443.087 394.916 447.871 399.444 451.1 405.271C454.368 411.059 456.002 417.812 456.002 425.529C456.002 433.286 454.348 440.018 451.041 445.728C447.773 451.397 442.949 455.787 436.571 458.898C430.192 461.969 422.357 463.505 413.065 463.505H380.759V445.314H410.112C415.545 445.314 419.995 444.566 423.46 443.07C426.924 441.534 429.484 439.31 431.137 436.396C432.83 433.443 433.677 429.821 433.677 425.529C433.677 421.237 432.83 417.576 431.137 414.544C429.444 411.473 426.865 409.15 423.4 407.575C419.936 405.96 415.467 405.153 409.994 405.153H389.913V507.8H368.002ZM430.488 452.992L460.431 507.8H435.98L406.568 452.992H430.488ZM492.478 507.8L458.342 386.845H481.907L503.7 475.73H504.822L528.092 386.845H549.531L572.859 475.789H573.922L595.716 386.845H619.281L585.144 507.8H563.528L539.313 422.93H538.368L514.094 507.8H492.478ZM629.49 507.8H606.103L648.685 386.845H675.735L718.376 507.8H694.988L662.682 411.65H661.737L629.49 507.8ZM630.258 460.374H694.043V477.974H630.258V460.374ZM794.453 441.062L774.963 443.188C774.412 441.219 773.447 439.369 772.069 437.636C770.73 435.904 768.919 434.506 766.635 433.443C764.352 432.38 761.556 431.848 758.249 431.848C753.8 431.848 750.059 432.813 747.027 434.742C744.035 436.672 742.558 439.172 742.598 442.243C742.558 444.881 743.523 447.027 745.492 448.681C747.5 450.334 750.807 451.693 755.414 452.756L770.888 456.063C779.471 457.914 785.85 460.847 790.023 464.863C794.236 468.879 796.362 474.135 796.402 480.632C796.362 486.341 794.689 491.381 791.382 495.752C788.114 500.083 783.566 503.469 777.739 505.91C771.911 508.351 765.218 509.572 757.658 509.572C746.555 509.572 737.617 507.249 730.845 502.603C724.073 497.917 720.037 491.401 718.738 483.054L739.586 481.046C740.531 485.14 742.539 488.231 745.61 490.318C748.681 492.405 752.677 493.448 757.599 493.448C762.678 493.448 766.753 492.405 769.825 490.318C772.935 488.231 774.49 485.652 774.49 482.581C774.49 479.982 773.486 477.837 771.478 476.144C769.51 474.45 766.438 473.151 762.265 472.246L746.791 468.997C738.09 467.186 731.652 464.135 727.478 459.843C723.305 455.512 721.238 450.039 721.277 443.424C721.238 437.833 722.754 432.99 725.825 428.895C728.935 424.761 733.247 421.572 738.759 419.328C744.311 417.044 750.709 415.902 757.954 415.902C768.584 415.902 776.951 418.166 783.054 422.694C789.196 427.222 792.996 433.345 794.453 441.062ZM818.054 509.099C814.471 509.099 811.4 507.839 808.841 505.319C806.282 502.799 805.022 499.728 805.061 496.106C805.022 492.562 806.282 489.531 808.841 487.011C811.4 484.491 814.471 483.231 818.054 483.231C821.519 483.231 824.531 484.491 827.091 487.011C829.689 489.531 831.008 492.562 831.048 496.106C831.008 498.508 830.378 500.693 829.158 502.662C827.976 504.63 826.401 506.205 824.433 507.386C822.504 508.528 820.377 509.099 818.054 509.099Z" fill="black"/>
<mask id="mask0_1_2" style="mask-type:alpha" maskUnits="userSpaceOnUse" x="125" y="82" width="83" height="67">
<path fill-rule="evenodd" clip-rule="evenodd" d="M125.298 82.0007H207.235V148.278H125.298V82.0007Z" fill="white"/>
</mask>
<g mask="url(#mask0_1_2)">
<path fill-rule="evenodd" clip-rule="evenodd" d="M134.892 145.817C132.458 140.583 131.098 134.744 131.098 128.586C131.098 106.074 149.273 87.8239 171.694 87.8239C184.178 87.8239 195.346 93.4825 202.793 102.384L207.235 98.6412C198.724 88.4677 185.961 82.0007 171.694 82.0007C146.07 82.0007 125.298 102.858 125.298 128.586C125.298 135.623 126.852 142.297 129.635 148.278L134.892 145.817Z" fill="black"/>
</g>
<path fill-rule="evenodd" clip-rule="evenodd" d="M171.693 156.245C156.479 156.245 144.146 143.861 144.146 128.585C144.146 113.309 156.479 100.925 171.693 100.925C180.165 100.925 187.742 104.766 192.795 110.807L197.239 107.063C191.122 99.7505 181.948 95.1023 171.693 95.1023C153.276 95.1023 138.347 110.093 138.347 128.585C138.347 147.077 153.276 162.068 171.693 162.068V156.245Z" fill="black"/>
<path fill-rule="evenodd" clip-rule="evenodd" d="M181.689 137.007C179.295 139.868 175.706 141.688 171.693 141.688C164.487 141.688 158.645 135.822 158.645 128.585C158.645 121.349 164.487 115.483 171.693 115.483C175.706 115.483 179.295 117.303 181.689 120.164L186.687 115.953C183.096 111.661 177.713 108.932 171.693 108.932C160.883 108.932 152.12 117.731 152.12 128.585C152.12 139.44 160.883 148.239 171.693 148.239C177.21 148.239 182.191 145.945 185.749 142.259L181.689 137.007Z" fill="black"/>
<path fill-rule="evenodd" clip-rule="evenodd" d="M216.971 122.208H222.934V126.252H223.039C223.596 124.991 224.564 123.88 225.941 122.917C227.319 121.954 228.949 121.472 230.832 121.472C232.471 121.472 233.874 121.761 235.042 122.339C236.211 122.917 237.169 123.678 237.919 124.623C238.669 125.569 239.218 126.655 239.567 127.88C239.915 129.106 240.09 130.366 240.09 131.661V147.417H233.813V133.447C233.813 132.711 233.761 131.942 233.657 131.136C233.552 130.331 233.325 129.605 232.977 128.956C232.628 128.309 232.148 127.775 231.538 127.355C230.928 126.934 230.117 126.724 229.106 126.724C228.094 126.724 227.223 126.926 226.491 127.328C225.758 127.731 225.157 128.247 224.686 128.878C224.215 129.508 223.858 130.235 223.614 131.057C223.37 131.88 223.248 132.711 223.248 133.552V147.417H216.971V122.208Z" fill="black"/>
<path fill-rule="evenodd" clip-rule="evenodd" d="M242.756 127.25V122.208H247.15V114.908H253.322V122.208H259.599V127.25H253.322V138.962C253.322 140.083 253.522 141.01 253.924 141.745C254.324 142.48 255.222 142.848 256.617 142.848C257.036 142.848 257.489 142.805 257.977 142.717C258.465 142.63 258.901 142.499 259.285 142.323L259.494 147.26C258.936 147.47 258.273 147.635 257.507 147.759C256.739 147.881 256.007 147.942 255.31 147.942C253.636 147.942 252.276 147.706 251.23 147.233C250.184 146.761 249.355 146.113 248.745 145.29C248.135 144.468 247.716 143.523 247.49 142.454C247.263 141.387 247.15 140.24 247.15 139.014V127.25H242.756Z" fill="black"/>
<path fill-rule="evenodd" clip-rule="evenodd" d="M263.366 122.208H269.381V126.409H269.486C270.182 124.939 271.159 123.749 272.415 122.838C273.67 121.928 275.134 121.472 276.808 121.472C277.052 121.472 277.313 121.481 277.593 121.499C277.872 121.517 278.116 121.56 278.325 121.63V127.407C277.906 127.302 277.549 127.232 277.253 127.197C276.956 127.162 276.668 127.145 276.39 127.145C274.96 127.145 273.809 127.407 272.938 127.932C272.065 128.457 271.386 129.087 270.898 129.823C270.409 130.558 270.078 131.311 269.904 132.081C269.729 132.852 269.642 133.465 269.642 133.919V147.417H263.366V122.208Z" fill="black"/>
<path fill-rule="evenodd" clip-rule="evenodd" d="M281.2 147.417H287.477V122.208H281.2V147.417ZM280.311 113.647C280.311 112.632 280.686 111.748 281.436 110.995C282.185 110.243 283.136 109.866 284.287 109.866C285.437 109.866 286.405 110.225 287.189 110.943C287.974 111.661 288.366 112.563 288.366 113.647C288.366 114.733 287.974 115.635 287.189 116.352C286.405 117.07 285.437 117.429 284.287 117.429C283.136 117.429 282.185 117.053 281.436 116.299C280.686 115.547 280.311 114.663 280.311 113.647V113.647Z" fill="black"/>
<path fill-rule="evenodd" clip-rule="evenodd" d="M295.585 127.25H290.826V122.208H295.585V120.323C295.585 118.818 295.75 117.374 296.082 115.99C296.413 114.607 296.972 113.39 297.756 112.34C298.541 111.29 299.578 110.458 300.868 109.845C302.158 109.233 303.779 108.926 305.733 108.926C306.43 108.926 307.014 108.952 307.485 109.005C307.956 109.057 308.435 109.154 308.923 109.294L308.505 114.651C308.156 114.546 307.781 114.459 307.38 114.388C306.979 114.318 306.551 114.283 306.099 114.283C305.192 114.283 304.459 114.459 303.902 114.808C303.344 115.159 302.916 115.614 302.621 116.174C302.324 116.734 302.124 117.347 302.019 118.012C301.914 118.677 301.862 119.325 301.862 119.955V122.208H307.668V127.25H301.862V147.417H295.585V127.25Z" fill="black"/>
<path fill-rule="evenodd" clip-rule="evenodd" d="M333.927 147.417H327.964V143.373H327.859C327.301 144.633 326.333 145.745 324.956 146.707C323.578 147.67 321.949 148.152 320.066 148.152C318.426 148.152 317.023 147.863 315.855 147.285C314.686 146.707 313.728 145.946 312.978 145.001C312.228 144.055 311.679 142.971 311.331 141.745C310.982 140.519 310.808 139.259 310.808 137.963V122.208H317.084V136.178C317.084 136.913 317.137 137.683 317.241 138.489C317.346 139.294 317.572 140.021 317.921 140.668C318.269 141.316 318.749 141.849 319.359 142.27C319.969 142.69 320.78 142.9 321.792 142.9C322.767 142.9 323.631 142.699 324.381 142.296C325.13 141.894 325.741 141.377 326.212 140.747C326.682 140.117 327.04 139.39 327.284 138.567C327.527 137.745 327.65 136.913 327.65 136.072V122.208H333.927V147.417Z" fill="black"/>
<path fill-rule="evenodd" clip-rule="evenodd" d="M196.026 127.906C197.334 126.768 198.929 126.199 200.812 126.199C201.823 126.199 202.703 126.365 203.454 126.698C204.203 127.031 204.822 127.477 205.31 128.037C205.798 128.598 206.155 129.245 206.383 129.98C206.609 130.715 206.723 131.486 206.723 132.291H193.856C193.994 130.505 194.718 129.044 196.026 127.906V127.906ZM207.664 139.749C206.966 140.764 206.077 141.561 204.997 142.138C203.915 142.716 202.591 143.005 201.022 143.005C200.114 143.005 199.243 142.847 198.406 142.532C197.569 142.217 196.819 141.788 196.157 141.245C195.494 140.703 194.962 140.055 194.562 139.302C194.161 138.549 193.925 137.718 193.856 136.808H212.947C212.982 136.528 213 136.248 213 135.967V135.127C213 132.851 212.694 130.865 212.084 129.166C211.474 127.468 210.628 126.05 209.547 124.912C208.466 123.775 207.184 122.916 205.703 122.339C204.22 121.761 202.608 121.472 200.865 121.472C198.982 121.472 197.229 121.796 195.608 122.444C193.987 123.092 192.582 124.002 191.397 125.175C190.211 126.348 189.279 127.766 188.599 129.428C187.919 131.092 187.579 132.939 187.579 134.969C187.579 137.036 187.919 138.882 188.599 140.51C189.279 142.138 190.22 143.513 191.423 144.633C192.626 145.754 194.047 146.62 195.686 147.232C197.325 147.845 199.121 148.152 201.074 148.152C205.289 148.152 208.608 146.803 211.034 144.108L207.664 139.749Z" fill="black"/>
<path fill-rule="evenodd" clip-rule="evenodd" d="M376.931 127.906C378.239 126.768 379.834 126.199 381.717 126.199C382.728 126.199 383.608 126.365 384.359 126.698C385.108 127.031 385.727 127.477 386.215 128.037C386.703 128.598 387.06 129.245 387.288 129.98C387.514 130.715 387.628 131.486 387.628 132.291H374.761C374.899 130.505 375.623 129.044 376.931 127.906V127.906ZM388.569 139.749C387.871 140.764 386.982 141.561 385.902 142.138C384.82 142.716 383.495 143.005 381.926 143.005C381.019 143.005 380.148 142.847 379.311 142.532C378.474 142.217 377.724 141.788 377.062 141.245C376.399 140.703 375.867 140.055 375.466 139.302C375.065 138.549 374.83 137.718 374.76 136.808H393.852C393.886 136.528 393.904 136.248 393.904 135.967V135.127C393.904 132.851 393.599 130.865 392.989 129.166C392.378 127.468 391.532 126.05 390.452 124.912C389.371 123.775 388.089 122.916 386.607 122.339C385.125 121.761 383.512 121.472 381.769 121.472C379.886 121.472 378.134 121.796 376.513 122.444C374.891 123.092 373.487 124.002 372.302 125.175C371.116 126.348 370.183 127.766 369.504 129.428C368.824 131.092 368.484 132.939 368.484 134.969C368.484 137.036 368.824 138.882 369.504 140.51C370.183 142.138 371.125 143.513 372.328 144.633C373.531 145.754 374.952 146.62 376.591 147.232C378.23 147.845 380.025 148.152 381.978 148.152C386.194 148.152 389.513 146.803 391.939 144.108L388.569 139.749Z" fill="black"/>
<path fill-rule="evenodd" clip-rule="evenodd" d="M358.14 137.638C357.791 138.598 357.294 139.444 356.649 140.177C356.003 140.91 355.219 141.494 354.295 141.931C353.371 142.367 352.334 142.585 351.183 142.585C350.067 142.585 349.064 142.359 348.176 141.904C347.286 141.451 346.536 140.849 345.926 140.098C345.316 139.348 344.845 138.502 344.514 137.559C344.182 136.617 344.017 135.641 344.017 134.628C344.017 133.512 344.182 132.465 344.514 131.488C344.845 130.51 345.316 129.664 345.926 128.949C346.536 128.233 347.286 127.666 348.176 127.248C349.064 126.829 350.085 126.619 351.235 126.619C352.386 126.619 353.414 126.829 354.321 127.248C355.228 127.666 356.003 128.242 356.649 128.975C357.294 129.708 357.791 130.563 358.14 131.539C358.488 132.517 358.663 133.547 358.663 134.628C358.663 135.675 358.488 136.679 358.14 137.638V137.638ZM358.663 122.207V125.988H358.558C357.651 124.448 356.431 123.31 354.897 122.575C353.362 121.84 351.706 121.472 349.928 121.472C348.045 121.472 346.345 121.822 344.828 122.522C343.311 123.223 342.021 124.168 340.957 125.358C339.893 126.549 339.075 127.95 338.499 129.56C337.924 131.171 337.636 132.887 337.636 134.707C337.636 136.492 337.932 138.182 338.525 139.775C339.118 141.369 339.946 142.76 341.01 143.95C342.073 145.141 343.372 146.086 344.907 146.786C346.441 147.486 348.15 147.837 350.033 147.837C351.776 147.837 353.354 147.509 354.766 146.855C356.178 146.201 357.337 145.255 358.245 144.017H358.349V145.861C358.349 147.127 358.218 148.286 357.957 149.34C357.695 150.394 357.259 151.308 356.649 152.081C356.039 152.854 355.219 153.46 354.191 153.9C353.162 154.339 351.898 154.559 350.399 154.559C348.83 154.559 347.278 154.252 345.743 153.64C344.249 153.043 342.904 152.188 341.708 151.077L338.002 155.872C338.804 156.537 339.711 157.132 340.722 157.658C341.733 158.183 342.788 158.62 343.887 158.97C344.985 159.32 346.101 159.583 347.234 159.758C348.367 159.933 349.439 160.021 350.451 160.021C352.891 160.021 355.002 159.67 356.78 158.97C358.558 158.27 360.031 157.281 361.2 156.003C362.368 154.725 363.231 153.167 363.789 151.329C364.346 149.491 364.626 147.433 364.626 145.158V122.207H358.663Z" fill="black"/>
</g>
<defs>
<clipPath id="clip0_1_2">
<rect width="1920" height="635" fill="white"/>
</clipPath>
</defs>
</svg>
