<svg width="1920" height="635" viewBox="0 0 1920 635" fill="none" xmlns="http://www.w3.org/2000/svg">
<g clip-path="url(#clip0_1_2)">
<rect width="1920" height="635" fill="white"/>
<path d="M78.6147 316.412V298.045H175.119V316.412H137.734V419H116V316.412H78.6147ZM205.011 365.846V419H183.631V298.045H204.538V343.698H205.601C207.727 338.58 211.015 334.544 215.464 331.591C219.953 328.599 225.662 327.102 232.592 327.102C238.892 327.102 244.384 328.421 249.07 331.059C253.755 333.697 257.377 337.556 259.937 342.635C262.535 347.714 263.835 353.916 263.835 361.239V419H242.455V364.546C242.455 358.444 240.88 353.699 237.73 350.313C234.619 346.887 230.249 345.175 224.619 345.175C220.839 345.175 217.453 346.002 214.46 347.655C211.507 349.27 209.184 351.612 207.491 354.683C205.837 357.755 205.011 361.475 205.011 365.846ZM316.642 420.772C307.546 420.772 299.691 418.882 293.077 415.102C286.501 411.283 281.442 405.889 277.898 398.92C274.354 391.911 272.583 383.662 272.583 374.173C272.583 364.842 274.354 356.652 277.898 349.604C281.481 342.517 286.481 337.005 292.899 333.067C299.317 329.091 306.857 327.102 315.519 327.102C321.11 327.102 326.386 328.008 331.348 329.819C336.348 331.591 340.758 334.347 344.577 338.088C348.436 341.828 351.467 346.592 353.672 352.38C355.877 358.129 356.98 364.98 356.98 372.933V379.489H282.623V365.078H336.486C336.446 360.983 335.56 357.341 333.828 354.152C332.096 350.923 329.674 348.384 326.564 346.533C323.493 344.683 319.91 343.757 315.815 343.757C311.444 343.757 307.605 344.82 304.298 346.947C300.991 349.033 298.412 351.789 296.561 355.215C294.75 358.601 293.825 362.322 293.785 366.377V378.957C293.785 384.233 294.75 388.761 296.679 392.541C298.608 396.282 301.306 399.156 304.77 401.164C308.235 403.132 312.291 404.117 316.937 404.117C320.047 404.117 322.863 403.684 325.382 402.818C327.902 401.912 330.088 400.593 331.938 398.86C333.789 397.128 335.186 394.982 336.131 392.423L356.094 394.667C354.834 399.943 352.432 404.55 348.888 408.487C345.384 412.385 340.896 415.417 335.423 417.583C329.95 419.709 323.689 420.772 316.642 420.772ZM398.971 419V298.045H420.882V400.632H474.154V419H398.971ZM524.407 298.045V419H502.496V319.365H501.787L473.497 337.438V317.357L503.559 298.045H524.407ZM128.934 475.284V491.82H75.3074V475.284H128.934ZM88.714 566V466.72C88.714 460.617 89.974 455.538 92.4939 451.482C95.0532 447.427 98.4787 444.395 102.77 442.387C107.062 440.379 111.826 439.375 117.063 439.375C120.764 439.375 124.052 439.67 126.926 440.261C129.8 440.851 131.926 441.383 133.304 441.855L129.052 458.392C128.147 458.117 127.005 457.841 125.627 457.565C124.249 457.25 122.713 457.093 121.02 457.093C117.043 457.093 114.228 458.058 112.574 459.987C110.96 461.877 110.153 464.594 110.153 468.137V566H88.714ZM172.69 567.772C163.831 567.772 156.153 565.823 149.656 561.925C143.16 558.027 138.12 552.574 134.537 545.565C130.993 538.557 129.222 530.367 129.222 520.996C129.222 511.625 130.993 503.416 134.537 496.368C138.12 489.32 143.16 483.847 149.656 479.949C156.153 476.051 163.831 474.102 172.69 474.102C181.549 474.102 189.227 476.051 195.723 479.949C202.22 483.847 207.24 489.32 210.784 496.368C214.367 503.416 216.158 511.625 216.158 520.996C216.158 530.367 214.367 538.557 210.784 545.565C207.24 552.574 202.22 558.027 195.723 561.925C189.227 565.823 181.549 567.772 172.69 567.772ZM172.808 550.644C177.612 550.644 181.628 549.325 184.856 546.687C188.085 544.01 190.487 540.427 192.062 535.938C193.676 531.45 194.483 526.449 194.483 520.937C194.483 515.385 193.676 510.365 192.062 505.877C190.487 501.349 188.085 497.746 184.856 495.069C181.628 492.391 177.612 491.053 172.808 491.053C167.886 491.053 163.792 492.391 160.524 495.069C157.295 497.746 154.873 501.349 153.259 505.877C151.684 510.365 150.897 515.385 150.897 520.937C150.897 526.449 151.684 531.45 153.259 535.938C154.873 540.427 157.295 544.01 160.524 546.687C163.792 549.325 167.886 550.644 172.808 550.644ZM225.157 566V475.284H245.887V490.403H246.832C248.486 485.166 251.321 481.13 255.337 478.296C259.393 475.421 264.019 473.984 269.216 473.984C270.397 473.984 271.716 474.043 273.173 474.161C274.669 474.24 275.91 474.378 276.894 474.575V494.242C275.988 493.927 274.551 493.651 272.583 493.415C270.653 493.139 268.783 493.002 266.972 493.002C263.074 493.002 259.57 493.848 256.459 495.541C253.388 497.195 250.967 499.498 249.195 502.451C247.423 505.404 246.537 508.81 246.537 512.669V566H225.157ZM315.002 566V445.045H360.36C369.652 445.045 377.448 446.659 383.748 449.888C390.087 453.116 394.871 457.644 398.1 463.471C401.368 469.259 403.002 476.012 403.002 483.729C403.002 491.486 401.348 498.219 398.041 503.928C394.773 509.598 389.949 513.988 383.571 517.098C377.192 520.169 369.357 521.705 360.065 521.705H327.759V503.514H357.112C362.545 503.514 366.995 502.766 370.46 501.27C373.924 499.734 376.484 497.51 378.137 494.596C379.83 491.643 380.677 488.021 380.677 483.729C380.677 479.437 379.83 475.776 378.137 472.744C376.444 469.673 373.865 467.35 370.4 465.775C366.936 464.161 362.467 463.353 356.994 463.353H336.913V566H315.002ZM377.488 511.192L407.431 566H382.98L353.568 511.192H377.488ZM439.478 566L405.342 445.045H428.907L450.7 533.93H451.822L475.092 445.045H496.531L519.859 533.989H520.922L542.716 445.045H566.281L532.144 566H510.528L486.313 481.13H485.368L461.094 566H439.478ZM576.49 566H553.103L595.685 445.045H622.735L665.376 566H641.988L609.682 469.85H608.737L576.49 566ZM577.258 518.575H641.043V536.175H577.258V518.575ZM741.453 499.262L721.963 501.388C721.412 499.419 720.447 497.569 719.069 495.836C717.73 494.104 715.919 492.706 713.635 491.643C711.352 490.58 708.556 490.049 705.249 490.049C700.8 490.049 697.059 491.013 694.027 492.943C691.035 494.872 689.558 497.372 689.598 500.443C689.558 503.081 690.523 505.227 692.492 506.881C694.5 508.534 697.807 509.893 702.414 510.956L717.888 514.263C726.471 516.114 732.85 519.047 737.023 523.063C741.236 527.079 743.362 532.336 743.402 538.832C743.362 544.541 741.689 549.581 738.382 553.952C735.114 558.283 730.566 561.669 724.739 564.11C718.911 566.551 712.218 567.772 704.658 567.772C693.555 567.772 684.617 565.449 677.845 560.803C671.073 556.117 667.037 549.601 665.738 541.254L686.586 539.246C687.531 543.341 689.539 546.431 692.61 548.518C695.681 550.605 699.677 551.648 704.599 551.648C709.678 551.648 713.753 550.605 716.825 548.518C719.935 546.431 721.49 543.852 721.49 540.781C721.49 538.183 720.486 536.037 718.478 534.344C716.51 532.651 713.438 531.351 709.265 530.446L693.791 527.197C685.09 525.386 678.652 522.335 674.478 518.043C670.305 513.712 668.238 508.239 668.277 501.624C668.238 496.033 669.754 491.19 672.825 487.096C675.935 482.961 680.247 479.772 685.759 477.528C691.311 475.244 697.709 474.102 704.954 474.102C715.584 474.102 723.951 476.366 730.054 480.894C736.196 485.422 739.996 491.545 741.453 499.262ZM765.054 567.299C761.471 567.299 758.4 566.039 755.841 563.519C753.282 561 752.022 557.928 752.061 554.306C752.022 550.762 753.282 547.731 755.841 545.211C758.4 542.691 761.471 541.431 765.054 541.431C768.519 541.431 771.531 542.691 774.091 545.211C776.689 547.731 778.008 550.762 778.048 554.306C778.008 556.708 777.378 558.893 776.158 560.862C774.976 562.83 773.401 564.405 771.433 565.587C769.504 566.728 767.377 567.299 765.054 567.299Z" fill="black"/>
<mask id="mask0_1_2" style="mask-type:alpha" maskUnits="userSpaceOnUse" x="80" y="40" width="82" height="67">
<path fill-rule="evenodd" clip-rule="evenodd" d="M80 40.0007H161.937V106.278H80V40.0007Z" fill="white"/>
</mask>
<g mask="url(#mask0_1_2)">
<path fill-rule="evenodd" clip-rule="evenodd" d="M89.5943 103.817C87.1594 98.5827 85.7994 92.7437 85.7994 86.5857C85.7994 64.0735 103.975 45.8239 126.396 45.8239C138.88 45.8239 150.047 51.4825 157.494 60.3842L161.937 56.6412C153.426 46.4677 140.663 40.0007 126.396 40.0007C100.772 40.0007 80 60.8575 80 86.5857C80 93.6234 81.5542 100.297 84.337 106.278L89.5943 103.817Z" fill="black"/>
</g>
<path fill-rule="evenodd" clip-rule="evenodd" d="M126.395 114.245C111.181 114.245 98.8479 101.861 98.8479 86.5853C98.8479 71.3092 111.181 58.9254 126.395 58.9254C134.867 58.9254 142.444 62.7662 147.497 68.8066L151.941 65.0626C145.824 57.7505 136.65 53.1023 126.395 53.1023C107.978 53.1023 93.0484 68.0931 93.0484 86.5853C93.0484 105.077 107.978 120.068 126.395 120.068V114.245Z" fill="black"/>
<path fill-rule="evenodd" clip-rule="evenodd" d="M136.391 95.007C133.997 97.8682 130.408 99.6875 126.395 99.6875C119.189 99.6875 113.346 93.8216 113.346 86.5855C113.346 79.3495 119.189 73.4835 126.395 73.4835C130.408 73.4835 133.997 75.3028 136.391 78.1641L141.388 73.9534C137.798 69.6614 132.414 66.9325 126.395 66.9325C115.585 66.9325 106.822 75.7314 106.822 86.5855C106.822 97.4395 115.585 106.239 126.395 106.239C131.911 106.239 136.893 103.945 140.45 100.259L136.391 95.007Z" fill="black"/>
<path fill-rule="evenodd" clip-rule="evenodd" d="M171.673 80.2077H177.636V84.2515H177.74C178.298 82.9911 179.265 81.8799 180.643 80.9165C182.02 79.9541 183.651 79.4723 185.534 79.4723C187.172 79.4723 188.576 79.7612 189.744 80.3391C190.912 80.9165 191.871 81.6782 192.621 82.6234C193.371 83.5689 193.92 84.6545 194.269 85.8796C194.617 87.1056 194.792 88.366 194.792 89.6611V105.417H188.515V91.4467C188.515 90.7114 188.463 89.9415 188.358 89.1358C188.254 88.331 188.027 87.6046 187.678 86.9564C187.329 86.3089 186.849 85.7746 186.24 85.3546C185.629 84.9344 184.818 84.7242 183.808 84.7242C182.796 84.7242 181.925 84.9262 181.193 85.3284C180.46 85.7311 179.859 86.2473 179.388 86.8777C178.917 87.5077 178.559 88.235 178.315 89.057C178.071 89.8802 177.95 90.7114 177.95 91.5518V105.417H171.673V80.2077Z" fill="black"/>
<path fill-rule="evenodd" clip-rule="evenodd" d="M197.458 85.2501V80.2082H201.852V72.9079H208.024V80.2082H214.3V85.2501H208.024V96.9616C208.024 98.0825 208.224 99.0099 208.625 99.7453C209.026 100.48 209.924 100.848 211.319 100.848C211.738 100.848 212.19 100.805 212.679 100.717C213.167 100.63 213.603 100.499 213.987 100.323L214.196 105.26C213.638 105.47 212.975 105.635 212.208 105.759C211.441 105.881 210.709 105.942 210.012 105.942C208.338 105.942 206.978 105.706 205.932 105.233C204.885 104.761 204.057 104.113 203.447 103.29C202.837 102.468 202.418 101.523 202.192 100.454C201.965 99.3866 201.852 98.2401 201.852 97.0141V85.2501H197.458Z" fill="black"/>
<path fill-rule="evenodd" clip-rule="evenodd" d="M218.068 80.2077H224.083V84.4091H224.187C224.884 82.9386 225.861 81.7488 227.116 80.8377C228.372 79.9278 229.836 79.4723 231.51 79.4723C231.753 79.4723 232.015 79.4813 232.295 79.4985C232.573 79.5167 232.818 79.5602 233.027 79.6299V85.4072C232.608 85.302 232.25 85.2323 231.955 85.197C231.658 85.1623 231.37 85.1445 231.091 85.1445C229.661 85.1445 228.511 85.4072 227.64 85.9321C226.767 86.4574 226.087 87.0874 225.6 87.8229C225.111 88.5583 224.78 89.3115 224.606 90.0813C224.431 90.8517 224.344 91.4646 224.344 91.9192V105.417H218.068V80.2077Z" fill="black"/>
<path fill-rule="evenodd" clip-rule="evenodd" d="M235.902 105.417H242.178V80.2083H235.902V105.417ZM235.013 71.6474C235.013 70.6325 235.387 69.7485 236.137 68.9953C236.887 68.2426 237.837 67.8662 238.988 67.8662C240.139 67.8662 241.107 68.2254 241.891 68.9428C242.676 69.6606 243.068 70.5627 243.068 71.6474C243.068 72.7329 242.676 73.635 241.891 74.352C241.107 75.0702 240.139 75.4289 238.988 75.4289C237.837 75.4289 236.887 75.053 236.137 74.2995C235.387 73.5471 235.013 72.6632 235.013 71.6474Z" fill="black"/>
<path fill-rule="evenodd" clip-rule="evenodd" d="M250.287 85.2499H245.527V80.2081H250.287V78.3228C250.287 76.8179 250.452 75.3737 250.784 73.9901C251.115 72.6074 251.673 71.3902 252.458 70.3399C253.242 69.2897 254.28 68.4583 255.57 67.8454C256.86 67.2332 258.481 66.9262 260.435 66.9262C261.132 66.9262 261.716 66.9524 262.187 67.0049C262.657 67.0575 263.136 67.1544 263.625 67.2939L263.207 72.6509C262.858 72.5458 262.483 72.4589 262.082 72.3882C261.681 72.3185 261.253 72.2832 260.801 72.2832C259.893 72.2832 259.161 72.4589 258.604 72.8085C258.045 73.1587 257.618 73.6143 257.322 74.174C257.026 74.7342 256.825 75.3474 256.721 76.0121C256.616 76.6775 256.564 77.325 256.564 77.9551V80.2081H262.37V85.2499H256.564V105.417H250.287V85.2499Z" fill="black"/>
<path fill-rule="evenodd" clip-rule="evenodd" d="M288.628 105.417H282.666V101.373H282.561C282.003 102.633 281.035 103.745 279.658 104.707C278.28 105.67 276.65 106.152 274.767 106.152C273.128 106.152 271.725 105.863 270.557 105.285C269.388 104.707 268.429 103.946 267.68 103.001C266.93 102.055 266.38 100.971 266.032 99.7447C265.684 98.5193 265.509 97.2589 265.509 95.9632V80.2076H271.786V94.1776C271.786 94.9129 271.838 95.6834 271.943 96.4885C272.048 97.2943 272.274 98.0206 272.623 98.6679C272.971 99.3164 273.451 99.8495 274.061 100.27C274.671 100.69 275.482 100.9 276.494 100.9C277.469 100.9 278.332 100.699 279.083 100.296C279.832 99.8938 280.442 99.377 280.913 98.7466C281.384 98.1166 281.741 97.3903 281.985 96.5673C282.229 95.745 282.352 94.9129 282.352 94.0725V80.2076H288.628V105.417Z" fill="black"/>
<path fill-rule="evenodd" clip-rule="evenodd" d="M150.728 85.9056C152.035 84.7685 153.631 84.1987 155.514 84.1987C156.525 84.1987 157.405 84.3654 158.155 84.6978C158.905 85.031 159.523 85.4773 160.012 86.0369C160.5 86.5975 160.857 87.2448 161.084 87.9802C161.311 88.7154 161.424 89.486 161.424 90.2909H148.557C148.696 88.5055 149.42 87.0438 150.728 85.9056ZM162.366 97.7487C161.668 98.7645 160.779 99.5606 159.699 100.138C158.617 100.716 157.292 101.005 155.723 101.005C154.816 101.005 153.945 100.847 153.108 100.532C152.271 100.217 151.521 99.7885 150.859 99.2453C150.196 98.7029 149.664 98.0553 149.264 97.3021C148.862 96.5495 148.627 95.7185 148.558 94.8076H167.649C167.683 94.5278 167.701 94.2479 167.701 93.9672V93.127C167.701 90.8513 167.396 88.8646 166.786 87.1658C166.176 85.4681 165.329 84.0501 164.249 82.9119C163.168 81.7747 161.886 80.9161 160.405 80.3386C158.922 79.7608 157.31 79.4719 155.566 79.4719C153.683 79.4719 151.931 79.7962 150.31 80.4437C148.688 81.0919 147.284 82.002 146.099 83.1746C144.913 84.3481 143.981 85.766 143.301 87.4285C142.621 89.0919 142.281 90.9393 142.281 92.9694C142.281 95.0355 142.621 96.8819 143.301 98.51C143.981 100.138 144.922 101.513 146.125 102.633C147.328 103.754 148.749 104.62 150.388 105.232C152.027 105.845 153.823 106.152 155.776 106.152C159.991 106.152 163.31 104.803 165.736 102.108L162.366 97.7487Z" fill="black"/>
<path fill-rule="evenodd" clip-rule="evenodd" d="M331.633 85.9056C332.94 84.7685 334.536 84.1987 336.419 84.1987C337.43 84.1987 338.31 84.3654 339.06 84.6978C339.81 85.031 340.428 85.4773 340.917 86.0369C341.405 86.5975 341.762 87.2448 341.989 87.9802C342.216 88.7154 342.329 89.486 342.329 90.2909H329.462C329.601 88.5055 330.325 87.0438 331.633 85.9056ZM343.271 97.7487C342.573 98.7645 341.684 99.5606 340.603 100.138C339.522 100.716 338.197 101.005 336.628 101.005C335.721 101.005 334.85 100.847 334.013 100.532C333.176 100.217 332.426 99.7885 331.764 99.2453C331.101 98.7029 330.569 98.0553 330.168 97.3021C329.767 96.5495 329.532 95.7185 329.462 94.8076H348.554C348.588 94.5278 348.606 94.2479 348.606 93.9672V93.127C348.606 90.8513 348.3 88.8646 347.69 87.1658C347.08 85.4681 346.234 84.0501 345.154 82.9119C344.073 81.7747 342.791 80.9161 341.309 80.3386C339.827 79.7608 338.214 79.4719 336.471 79.4719C334.588 79.4719 332.836 79.7962 331.215 80.4437C329.593 81.0919 328.189 82.002 327.004 83.1746C325.818 84.3481 324.885 85.766 324.205 87.4285C323.525 89.0919 323.186 90.9393 323.186 92.9694C323.186 95.0355 323.525 96.8819 324.205 98.51C324.885 100.138 325.827 101.513 327.03 102.633C328.233 103.754 329.653 104.62 331.293 105.232C332.932 105.845 334.727 106.152 336.68 106.152C340.895 106.152 344.215 104.803 346.641 102.108L343.271 97.7487Z" fill="black"/>
<path fill-rule="evenodd" clip-rule="evenodd" d="M312.842 95.6383C312.492 96.5982 311.995 97.4444 311.351 98.1773C310.705 98.9098 309.921 99.4942 308.997 99.9307C308.073 100.367 307.035 100.585 305.885 100.585C304.768 100.585 303.766 100.359 302.877 99.9045C301.988 99.4508 301.238 98.8485 300.628 98.0984C300.018 97.3483 299.547 96.5016 299.216 95.5595C298.884 94.6174 298.719 93.641 298.719 92.6282C298.719 91.5123 298.884 90.4651 299.216 89.4878C299.547 88.5103 300.018 87.6643 300.628 86.9488C301.238 86.2331 301.988 85.6662 302.877 85.2476C303.766 84.8292 304.786 84.6191 305.937 84.6191C307.088 84.6191 308.116 84.8292 309.023 85.2476C309.93 85.6662 310.705 86.2422 311.351 86.9751C311.995 87.708 312.492 88.5628 312.842 89.5393C313.19 90.5167 313.364 91.5467 313.364 92.6282C313.364 93.6753 313.19 94.6791 312.842 95.6383ZM313.365 80.2073V83.9884H313.26C312.353 82.4482 311.133 81.3101 309.599 80.575C308.064 79.8396 306.408 79.4719 304.63 79.4719C302.747 79.4719 301.047 79.8224 299.53 80.5225C298.013 81.2232 296.723 82.1684 295.659 83.3584C294.595 84.549 293.776 85.9498 293.201 87.5598C292.625 89.1707 292.338 90.8867 292.338 92.7067C292.338 94.4924 292.634 96.1821 293.227 97.7748C293.82 99.3685 294.648 100.76 295.712 101.95C296.775 103.141 298.074 104.086 299.608 104.786C301.142 105.486 302.851 105.837 304.734 105.837C306.478 105.837 308.056 105.509 309.468 104.855C310.88 104.201 312.039 103.255 312.946 102.017H313.051V103.861C313.051 105.127 312.92 106.286 312.659 107.34C312.397 108.394 311.961 109.308 311.351 110.081C310.74 110.854 309.921 111.46 308.893 111.9C307.864 112.339 306.599 112.559 305.101 112.559C303.531 112.559 301.979 112.252 300.445 111.64C298.951 111.043 297.606 110.188 296.41 109.077L292.704 113.872C293.506 114.537 294.412 115.132 295.424 115.658C296.435 116.183 297.49 116.62 298.589 116.97C299.687 117.32 300.802 117.583 301.936 117.758C303.069 117.933 304.141 118.021 305.153 118.021C307.593 118.021 309.703 117.67 311.482 116.97C313.26 116.27 314.733 115.281 315.902 114.003C317.069 112.725 317.933 111.167 318.491 109.329C319.048 107.491 319.328 105.433 319.328 103.158V80.2073H313.365Z" fill="black"/>
<path d="M1624.35 5.35498V5.38769H1624.36V5.35498H1624.35ZM1326.6 177.264L1202.31 249.036H1202.3V315.789H1202.31V249.053L1326.61 177.281H1326.6V177.264Z" fill="black"/>
<path d="M1202.3 249.037V315.789H1202.31V249.037H1202.3ZM1254.53 279.2L1260.09 282.421H1260.11L1254.53 279.2ZM1624.34 559.454L1327.69 388.183L1624.34 559.471V559.454ZM1624.34 492.685L1260.12 282.421L1624.34 492.718V492.685ZM1254.53 279.2L1260.09 282.421H1260.11L1254.53 279.2ZM1327.69 388.183L1624.34 559.454L1327.69 388.183ZM1624.34 492.701L1260.12 282.421L1624.34 492.718V492.701Z" fill="black"/>
<path d="M2046.39 249.052V315.788L1748.51 487.763L1624.36 559.437V559.453H1624.34V559.437L1327.69 388.182L1202.31 315.805V249.052L1253.61 278.66L1254.53 279.199L1260.09 282.42H1260.12L1624.34 492.717L1624.36 492.701L1988.57 282.42H1988.62L2046.39 249.052Z" fill="#000571" stroke="black" stroke-width="4.65768" stroke-linejoin="round"/>
<path d="M1988.6 282.404L2046.38 249.052L1988.58 282.404H1988.6ZM1624.36 559.437L1748.52 487.763L1624.36 559.437V559.437ZM2046.39 249.052V315.789H2046.41V249.036H2046.39V249.052Z" fill="black"/>
<path d="M1254.53 279.2L1260.09 282.421H1260.11L1254.53 279.2ZM1922.09 177.264L2046.39 249.036L1922.11 177.264H1922.09ZM2046.38 249.036L1988.6 282.405L2046.38 249.053H2046.36L2046.38 249.036ZM1624.34 492.685L1260.12 282.421L1624.34 492.718V492.685ZM1254.53 279.2L1260.09 282.421H1260.11L1254.53 279.2ZM1326.6 177.264L1202.31 249.036L1326.61 177.281H1326.6V177.264ZM1254.53 279.184L1260.09 282.405H1260.11L1254.53 279.184Z" fill="black"/>
<path d="M1624.36 559.439L1748.52 487.765L1624.36 559.439ZM1624.35 559.456L1327.69 388.184L1624.35 559.472V559.456Z" fill="black"/>
<path d="M1624.35 -204.943L1202.31 38.7387H1202.3V105.492H1202.31V38.7551L1624.35 -204.91H1624.36V-204.943H1624.35Z" fill="black"/>
<path d="M1202.3 38.7378V105.474H1202.31V38.7378H1202.3ZM1260.12 72.1224L1384.41 143.894L1260.11 72.1224H1260.12ZM1384.44 143.894H1384.42L1442.22 177.263L1384.44 143.894ZM1442.23 177.263L1624.35 282.419L1442.23 177.263ZM1624.35 349.155L1384.44 210.631L1624.35 349.172V349.155ZM1326.65 177.263H1326.63L1202.33 105.491L1326.61 177.263H1326.65L1384.42 210.631L1326.66 177.263H1326.65ZM1260.12 72.1224L1384.41 143.894L1260.11 72.1224H1260.12ZM1384.44 143.894H1384.42L1442.22 177.263L1384.44 143.894ZM1442.23 177.263L1624.35 282.419L1442.23 177.263Z" fill="black"/>
<path d="M2046.39 38.7538L2047.06 104.904L2046.38 105.49L1922.08 177.246V177.262H1922.06L1864.28 210.63H1864.25L1624.36 349.139V349.155H1624.34V349.139L1384.44 210.63H1384.41L1326.65 177.262H1326.63V177.246L1202.33 105.49L1202.31 104.871L1202.31 38.7538L1260.09 72.1056V72.122H1260.12L1384.41 143.894H1384.42V143.91L1442.22 177.262V177.279H1442.23L1624.34 282.419L1806.47 177.279V177.262H1806.49L1864.25 143.894H1864.28L1988.57 72.122H1988.6L1988.62 72.1056L2046.39 38.7538Z" fill="#0F1371" stroke="black" stroke-width="4.65768" stroke-linejoin="bevel"/>
<path d="M1806.46 177.263L1624.35 282.42L1806.47 177.279H1806.46V177.263ZM1864.25 210.615L1624.36 349.123L1864.27 210.631H1864.25V210.615ZM1922.06 177.23L1864.28 210.599L1922.08 177.247H1922.06V177.23ZM1864.28 143.829L1988.57 72.0739L1864.28 143.829V143.829ZM2046.38 38.6893L1988.62 72.0576L2046.39 38.7057V105.442H2046.41V38.6893H2046.38V38.6893ZM1922.08 177.198L2046.36 105.442L1922.06 177.198H1922.08ZM1806.46 177.214L1624.35 282.371L1806.47 177.23H1806.46V177.214ZM1864.28 143.813L1988.57 72.0576L1864.28 143.813Z" fill="black"/>
<path d="M1864.28 143.878L1988.57 72.1224L1864.28 143.878V143.878ZM2046.38 38.7378L1988.62 72.1061L2046.39 38.7542H2046.38V38.7378ZM1806.47 177.23H1806.46L1624.35 282.386L1442.23 177.246L1624.35 282.403L1806.47 177.263H1806.49L1864.25 143.878L1806.47 177.23V177.23ZM1384.44 143.878H1384.42L1442.22 177.246L1384.44 143.878ZM1260.12 72.1061L1384.41 143.878L1260.11 72.1061H1260.12Z" fill="black"/>
<path d="M1202.33 105.492L1326.61 177.264L1202.33 105.492ZM1326.65 177.264H1326.63L1384.41 210.632L1326.65 177.264ZM1624.34 349.157L1384.44 210.649L1624.34 349.173V349.157ZM1624.36 349.141L1864.26 210.649L1624.36 349.141ZM1922.06 177.264L1864.28 210.632L1922.07 177.28H1922.06V177.264ZM1922.07 177.231L2046.36 105.476L1922.06 177.231H1922.07Z" fill="black"/>
<path d="M2046.38 249.034L1988.6 282.402H1988.58V282.419H1988.57L1624.36 492.699H1624.34L1260.12 282.419H1260.11V282.402L1254.53 279.198L1253.62 278.659L1202.31 249.051L1326.61 177.279H1326.63L1384.41 210.631V210.647H1384.44L1624.34 349.172H1624.99L1864.27 210.647H1864.28V210.631L1922.08 177.279L2046.38 249.034Z" fill="#FFC72B" stroke="black" stroke-width="4.65768" stroke-linejoin="bevel"/>
<path d="M1624.34 280.157L1624.34 349.563" stroke="black" stroke-width="4.65768"/>
<line x1="1625.13" y1="492.717" x2="1625.13" y2="560" stroke="black" stroke-width="4.65768"/>
<mask id="path-30-inside-1_1_2" fill="white">
<path fill-rule="evenodd" clip-rule="evenodd" d="M1624.22 -206H1624.24L2048.72 38.7282L1990.12 72.2733H1990.07L1865.23 144.367H1865.2L1807.16 177.884H1807.15L1624.22 283.495L1441.29 177.884H1441.28L1383.24 144.35H1383.23L1258.37 72.2569H1258.33L1200 38.7464L1624.22 -206Z"/>
</mask>
<path fill-rule="evenodd" clip-rule="evenodd" d="M1624.22 -206H1624.24L2048.72 38.7282L1990.12 72.2733H1990.07L1865.23 144.367H1865.2L1807.16 177.884H1807.15L1624.22 283.495L1441.29 177.884H1441.28L1383.24 144.35H1383.23L1258.37 72.2569H1258.33L1200 38.7464L1624.22 -206Z" fill="#2762FF"/>
<path d="M1624.24 -206L1626.56 -210.035L1625.48 -210.658H1624.24V-206ZM1624.22 -206V-210.658H1622.97L1621.89 -210.034L1624.22 -206ZM2048.72 38.7282L2051.03 42.7703L2058.07 38.7423L2051.04 34.6931L2048.72 38.7282ZM1990.12 72.2733V76.931H1991.36L1992.44 76.3154L1990.12 72.2733ZM1990.07 72.2733V67.6156H1988.82L1987.74 68.2398L1990.07 72.2733ZM1865.23 144.367V149.024H1866.48L1867.56 148.4L1865.23 144.367ZM1865.2 144.367V139.709H1863.95L1862.87 140.333L1865.2 144.367ZM1807.16 177.884V182.542H1808.41L1809.49 181.918L1807.16 177.884ZM1807.15 177.884V173.227H1805.9L1804.82 173.851L1807.15 177.884ZM1624.22 283.495L1621.89 287.529L1624.22 288.873L1626.55 287.529L1624.22 283.495ZM1441.29 177.884L1443.62 173.851L1442.54 173.227H1441.29V177.884ZM1441.28 177.884L1438.95 181.917L1440.03 182.542H1441.28V177.884ZM1383.24 144.35L1385.57 140.317L1384.49 139.692H1383.24V144.35ZM1383.23 144.35L1380.9 148.384L1381.98 149.008H1383.23V144.35ZM1258.37 72.2569L1260.7 68.2233L1259.62 67.5992H1258.37V72.2569ZM1258.33 72.2569L1256.01 76.2956L1257.09 76.9146H1258.33V72.2569ZM1200 38.7464L1197.67 34.712L1190.66 38.755L1197.68 42.7851L1200 38.7464ZM1624.24 -210.658H1624.22V-201.342H1624.24V-210.658ZM2051.04 34.6931L1626.56 -210.035L1621.91 -201.965L2046.39 42.7633L2051.04 34.6931ZM1992.44 76.3154L2051.03 42.7703L2046.4 34.686L1987.81 68.2312L1992.44 76.3154ZM1990.07 76.931H1990.12V67.6156H1990.07V76.931ZM1867.56 148.4L1992.4 76.3067L1987.74 68.2398L1862.9 140.333L1867.56 148.4ZM1865.2 149.024H1865.23V139.709H1865.2V149.024ZM1809.49 181.918L1867.53 148.4L1862.87 140.333L1804.83 173.851L1809.49 181.918ZM1807.15 182.542H1807.16V173.227H1807.15V182.542ZM1626.55 287.529L1809.48 181.918L1804.82 173.851L1621.89 279.461L1626.55 287.529ZM1438.97 181.918L1621.89 287.529L1626.55 279.461L1443.62 173.851L1438.97 181.918ZM1441.28 182.542H1441.29V173.227H1441.28V182.542ZM1380.91 148.383L1438.95 181.917L1443.61 173.851L1385.57 140.317L1380.91 148.383ZM1383.23 149.008H1383.24V139.692H1383.23V149.008ZM1256.04 76.2905L1380.9 148.384L1385.55 140.317L1260.7 68.2233L1256.04 76.2905ZM1258.33 76.9146H1258.37V67.5992H1258.33V76.9146ZM1197.68 42.7851L1256.01 76.2956L1260.65 68.2182L1202.32 34.7076L1197.68 42.7851ZM1621.89 -210.034L1197.67 34.712L1202.33 42.7807L1626.55 -201.966L1621.89 -210.034Z" fill="black" mask="url(#path-30-inside-1_1_2)"/>
</g>
<defs>
<clipPath id="clip0_1_2">
<rect width="1920" height="635" fill="white"/>
</clipPath>
</defs>
</svg>
